<mxfile modified="2021-04-29T07:53:14.608Z" host="app.diagrams.net" agent="5.0 (Windows NT 10.0; Win64; x64) AppleWebKit/537.36 (KHTML, like Gecko) Chrome/90.0.4430.93 Safari/537.36" etag="ya2pj3S5QUyGs_IFyrqm" version="14.6.6" type="github" pages="2">
  <diagram id="7NOKJoxBeWocO0zpXVM_" name="MoonBank">
    <mxGraphModel dx="780" dy="872" grid="1" gridSize="10" guides="1" tooltips="1" connect="1" arrows="1" fold="1" page="1" pageScale="1" pageWidth="1100" pageHeight="850" math="0" shadow="0">
      <root>
        <mxCell id="w8XVWNWsTbKyDXxL2xs8-0" />
        <mxCell id="w8XVWNWsTbKyDXxL2xs8-1" parent="w8XVWNWsTbKyDXxL2xs8-0" />
        <mxCell id="w8XVWNWsTbKyDXxL2xs8-16" value="" style="strokeColor=#dddddd;shadow=1;strokeWidth=1;rounded=1;absoluteArcSize=1;arcSize=2;" parent="w8XVWNWsTbKyDXxL2xs8-1" vertex="1">
          <mxGeometry x="920" y="282" width="120" height="60" as="geometry" />
        </mxCell>
        <mxCell id="w8XVWNWsTbKyDXxL2xs8-17" value="&lt;font color=&quot;#000000&quot;&gt;History&lt;br&gt;&lt;/font&gt;CBT" style="dashed=0;connectable=0;html=1;fillColor=#5184F3;strokeColor=none;shape=mxgraph.gcp2.hexIcon;prIcon=cloud_bigtable;part=1;labelPosition=right;verticalLabelPosition=middle;align=left;verticalAlign=middle;spacingLeft=5;fontColor=#999999;fontSize=12;" parent="w8XVWNWsTbKyDXxL2xs8-16" vertex="1">
          <mxGeometry y="0.5" width="44" height="39" relative="1" as="geometry">
            <mxPoint x="5" y="-19.5" as="offset" />
          </mxGeometry>
        </mxCell>
        <mxCell id="w8XVWNWsTbKyDXxL2xs8-22" value="" style="strokeColor=#dddddd;shadow=1;strokeWidth=1;rounded=1;absoluteArcSize=1;arcSize=2;" parent="w8XVWNWsTbKyDXxL2xs8-1" vertex="1">
          <mxGeometry x="920" y="382" width="120" height="60" as="geometry" />
        </mxCell>
        <mxCell id="w8XVWNWsTbKyDXxL2xs8-23" value="&lt;font color=&quot;#000000&quot;&gt;DWH&lt;/font&gt;&lt;br&gt;BigQuery" style="dashed=0;connectable=0;html=1;fillColor=#5184F3;strokeColor=none;shape=mxgraph.gcp2.hexIcon;prIcon=bigquery;part=1;labelPosition=right;verticalLabelPosition=middle;align=left;verticalAlign=middle;spacingLeft=5;fontColor=#999999;fontSize=12;" parent="w8XVWNWsTbKyDXxL2xs8-22" vertex="1">
          <mxGeometry y="0.5" width="44" height="39" relative="1" as="geometry">
            <mxPoint x="5" y="-19.5" as="offset" />
          </mxGeometry>
        </mxCell>
        <mxCell id="Zwh_xfM-_3h61Ws-3dWn-141" style="edgeStyle=orthogonalEdgeStyle;curved=1;orthogonalLoop=1;jettySize=auto;html=1;exitX=1;exitY=0.5;exitDx=0;exitDy=0;entryX=0;entryY=0.5;entryDx=0;entryDy=0;startArrow=none;startFill=0;strokeColor=#0000FF;" edge="1" parent="w8XVWNWsTbKyDXxL2xs8-1" source="w8XVWNWsTbKyDXxL2xs8-24" target="w8XVWNWsTbKyDXxL2xs8-16">
          <mxGeometry relative="1" as="geometry" />
        </mxCell>
        <mxCell id="Zwh_xfM-_3h61Ws-3dWn-147" style="edgeStyle=orthogonalEdgeStyle;rounded=1;orthogonalLoop=1;jettySize=auto;html=1;exitX=0.5;exitY=0;exitDx=0;exitDy=0;entryX=0.5;entryY=1;entryDx=0;entryDy=0;startArrow=none;startFill=0;strokeColor=#0000FF;" edge="1" parent="w8XVWNWsTbKyDXxL2xs8-1" source="w8XVWNWsTbKyDXxL2xs8-24" target="Zwh_xfM-_3h61Ws-3dWn-102">
          <mxGeometry relative="1" as="geometry" />
        </mxCell>
        <mxCell id="Zwh_xfM-_3h61Ws-3dWn-148" style="edgeStyle=orthogonalEdgeStyle;rounded=1;orthogonalLoop=1;jettySize=auto;html=1;exitX=1;exitY=0.5;exitDx=0;exitDy=0;entryX=0;entryY=0.5;entryDx=0;entryDy=0;startArrow=none;startFill=0;strokeColor=#0000FF;" edge="1" parent="w8XVWNWsTbKyDXxL2xs8-1" source="w8XVWNWsTbKyDXxL2xs8-24" target="w8XVWNWsTbKyDXxL2xs8-22">
          <mxGeometry relative="1" as="geometry" />
        </mxCell>
        <mxCell id="w8XVWNWsTbKyDXxL2xs8-24" value="" style="strokeColor=#dddddd;shadow=1;strokeWidth=1;rounded=1;absoluteArcSize=1;arcSize=2;" parent="w8XVWNWsTbKyDXxL2xs8-1" vertex="1">
          <mxGeometry x="760" y="382" width="120" height="60" as="geometry" />
        </mxCell>
        <mxCell id="w8XVWNWsTbKyDXxL2xs8-25" value="Dataflow" style="dashed=0;connectable=0;html=1;fillColor=#5184F3;strokeColor=none;shape=mxgraph.gcp2.hexIcon;prIcon=cloud_dataflow;part=1;labelPosition=right;verticalLabelPosition=middle;align=left;verticalAlign=middle;spacingLeft=5;fontColor=#999999;fontSize=12;" parent="w8XVWNWsTbKyDXxL2xs8-24" vertex="1">
          <mxGeometry y="0.5" width="44" height="39" relative="1" as="geometry">
            <mxPoint x="5" y="-19.5" as="offset" />
          </mxGeometry>
        </mxCell>
        <mxCell id="Zwh_xfM-_3h61Ws-3dWn-192" style="edgeStyle=orthogonalEdgeStyle;rounded=1;orthogonalLoop=1;jettySize=auto;html=1;exitX=1;exitY=0.5;exitDx=0;exitDy=0;entryX=0;entryY=0.5;entryDx=0;entryDy=0;startArrow=none;startFill=0;strokeColor=#0000FF;" edge="1" parent="w8XVWNWsTbKyDXxL2xs8-1" source="w8XVWNWsTbKyDXxL2xs8-26" target="Zwh_xfM-_3h61Ws-3dWn-190">
          <mxGeometry relative="1" as="geometry" />
        </mxCell>
        <mxCell id="w8XVWNWsTbKyDXxL2xs8-26" value="" style="strokeColor=#dddddd;shadow=1;strokeWidth=1;rounded=1;absoluteArcSize=1;arcSize=2;" parent="w8XVWNWsTbKyDXxL2xs8-1" vertex="1">
          <mxGeometry x="601.25" y="502" width="118.75" height="60" as="geometry" />
        </mxCell>
        <mxCell id="w8XVWNWsTbKyDXxL2xs8-27" value="Pub/Sub" style="dashed=0;connectable=0;html=1;fillColor=#5184F3;strokeColor=none;shape=mxgraph.gcp2.hexIcon;prIcon=cloud_pubsub;part=1;labelPosition=right;verticalLabelPosition=middle;align=left;verticalAlign=middle;spacingLeft=5;fontColor=#999999;fontSize=12;" parent="w8XVWNWsTbKyDXxL2xs8-26" vertex="1">
          <mxGeometry y="0.5" width="44" height="39" relative="1" as="geometry">
            <mxPoint x="5" y="-19.5" as="offset" />
          </mxGeometry>
        </mxCell>
        <mxCell id="Zwh_xfM-_3h61Ws-3dWn-182" style="edgeStyle=orthogonalEdgeStyle;rounded=1;orthogonalLoop=1;jettySize=auto;html=1;exitX=0.175;exitY=0.5;exitDx=0;exitDy=0;exitPerimeter=0;entryX=1;entryY=0.5;entryDx=0;entryDy=0;startArrow=none;startFill=0;strokeColor=#0000FF;" edge="1" parent="w8XVWNWsTbKyDXxL2xs8-1" source="w8XVWNWsTbKyDXxL2xs8-30" target="Zwh_xfM-_3h61Ws-3dWn-178">
          <mxGeometry relative="1" as="geometry" />
        </mxCell>
        <mxCell id="w8XVWNWsTbKyDXxL2xs8-30" value="Dialogflow&#xa;Enterprise&#xa;Edition" style="html=1;fillColor=#5184F3;strokeColor=none;verticalAlign=top;labelPosition=center;verticalLabelPosition=bottom;align=center;spacingTop=-6;fontSize=11;fontStyle=1;fontColor=#999999;shape=mxgraph.gcp2.hexIcon;prIcon=dialogflow_enterprise_edition" parent="w8XVWNWsTbKyDXxL2xs8-1" vertex="1">
          <mxGeometry x="800" y="602" width="66" height="58.5" as="geometry" />
        </mxCell>
        <mxCell id="w8XVWNWsTbKyDXxL2xs8-38" style="edgeStyle=orthogonalEdgeStyle;rounded=0;orthogonalLoop=1;jettySize=auto;html=1;exitX=0.5;exitY=1;exitDx=0;exitDy=0;entryX=0.5;entryY=1;entryDx=0;entryDy=0;entryPerimeter=0;" parent="w8XVWNWsTbKyDXxL2xs8-1" source="w8XVWNWsTbKyDXxL2xs8-33" edge="1">
          <mxGeometry relative="1" as="geometry">
            <mxPoint x="800" y="259.47" as="targetPoint" />
          </mxGeometry>
        </mxCell>
        <mxCell id="Zwh_xfM-_3h61Ws-3dWn-4" value="Customer" style="verticalLabelPosition=bottom;html=1;verticalAlign=top;align=center;strokeColor=none;fillColor=#00BEF2;shape=mxgraph.azure.user;" vertex="1" parent="w8XVWNWsTbKyDXxL2xs8-1">
          <mxGeometry x="37.42" y="132" width="38" height="40" as="geometry" />
        </mxCell>
        <mxCell id="Zwh_xfM-_3h61Ws-3dWn-88" style="edgeStyle=orthogonalEdgeStyle;curved=1;orthogonalLoop=1;jettySize=auto;html=1;exitX=0.5;exitY=0;exitDx=0;exitDy=0;startArrow=none;startFill=0;strokeColor=#0000FF;entryX=0.5;entryY=1;entryDx=0;entryDy=0;" edge="1" parent="w8XVWNWsTbKyDXxL2xs8-1" source="Zwh_xfM-_3h61Ws-3dWn-10" target="Zwh_xfM-_3h61Ws-3dWn-14">
          <mxGeometry relative="1" as="geometry">
            <mxPoint x="341" y="192" as="targetPoint" />
          </mxGeometry>
        </mxCell>
        <mxCell id="Zwh_xfM-_3h61Ws-3dWn-101" style="edgeStyle=orthogonalEdgeStyle;rounded=1;orthogonalLoop=1;jettySize=auto;html=1;startArrow=none;startFill=0;strokeColor=#0000FF;" edge="1" parent="w8XVWNWsTbKyDXxL2xs8-1" source="Zwh_xfM-_3h61Ws-3dWn-10" target="Zwh_xfM-_3h61Ws-3dWn-43">
          <mxGeometry relative="1" as="geometry" />
        </mxCell>
        <mxCell id="Zwh_xfM-_3h61Ws-3dWn-10" value="" style="strokeColor=#dddddd;shadow=1;strokeWidth=1;rounded=1;absoluteArcSize=1;arcSize=2;" vertex="1" parent="w8XVWNWsTbKyDXxL2xs8-1">
          <mxGeometry x="281.25" y="222" width="118.75" height="60" as="geometry" />
        </mxCell>
        <mxCell id="Zwh_xfM-_3h61Ws-3dWn-11" value="&lt;font color=&quot;#000000&quot;&gt;Cust Web&lt;/font&gt;&lt;br&gt;GAE Flex" style="dashed=0;connectable=0;html=1;fillColor=#5184F3;strokeColor=none;shape=mxgraph.gcp2.hexIcon;prIcon=app_engine;part=1;labelPosition=right;verticalLabelPosition=middle;align=left;verticalAlign=middle;spacingLeft=5;fontColor=#999999;fontSize=12;" vertex="1" parent="Zwh_xfM-_3h61Ws-3dWn-10">
          <mxGeometry y="0.5" width="44" height="39" relative="1" as="geometry">
            <mxPoint x="5" y="-19.5" as="offset" />
          </mxGeometry>
        </mxCell>
        <mxCell id="Zwh_xfM-_3h61Ws-3dWn-14" value="" style="strokeColor=#dddddd;shadow=1;strokeWidth=1;rounded=1;absoluteArcSize=1;arcSize=2;" vertex="1" parent="w8XVWNWsTbKyDXxL2xs8-1">
          <mxGeometry x="281.25" y="122" width="118.75" height="60" as="geometry" />
        </mxCell>
        <mxCell id="Zwh_xfM-_3h61Ws-3dWn-15" value="&lt;font color=&quot;#000000&quot;&gt;Static&lt;/font&gt;&lt;br&gt;GCS" style="dashed=0;connectable=0;html=1;fillColor=#5184F3;strokeColor=none;shape=mxgraph.gcp2.hexIcon;prIcon=cloud_storage;part=1;labelPosition=right;verticalLabelPosition=middle;align=left;verticalAlign=middle;spacingLeft=5;fontColor=#999999;fontSize=12;" vertex="1" parent="Zwh_xfM-_3h61Ws-3dWn-14">
          <mxGeometry y="0.5" width="44" height="39" relative="1" as="geometry">
            <mxPoint x="5" y="-19.5" as="offset" />
          </mxGeometry>
        </mxCell>
        <mxCell id="Zwh_xfM-_3h61Ws-3dWn-79" style="edgeStyle=orthogonalEdgeStyle;curved=1;orthogonalLoop=1;jettySize=auto;html=1;exitX=1;exitY=0.5;exitDx=0;exitDy=0;exitPerimeter=0;entryX=0;entryY=0.75;entryDx=0;entryDy=0;startArrow=none;startFill=0;strokeColor=#0000FF;" edge="1" parent="w8XVWNWsTbKyDXxL2xs8-1" source="Zwh_xfM-_3h61Ws-3dWn-30" target="Zwh_xfM-_3h61Ws-3dWn-69">
          <mxGeometry relative="1" as="geometry" />
        </mxCell>
        <mxCell id="Zwh_xfM-_3h61Ws-3dWn-30" value="" style="verticalLabelPosition=bottom;html=1;verticalAlign=top;align=center;strokeColor=none;fillColor=#00BEF2;shape=mxgraph.azure.mobile;pointerEvents=1;" vertex="1" parent="w8XVWNWsTbKyDXxL2xs8-1">
          <mxGeometry x="42.42" y="322" width="28" height="40" as="geometry" />
        </mxCell>
        <mxCell id="Zwh_xfM-_3h61Ws-3dWn-72" style="edgeStyle=orthogonalEdgeStyle;curved=1;orthogonalLoop=1;jettySize=auto;html=1;exitX=0.92;exitY=0.5;exitDx=0;exitDy=0;exitPerimeter=0;entryX=0;entryY=0.5;entryDx=0;entryDy=0;strokeColor=#0000FF;" edge="1" parent="w8XVWNWsTbKyDXxL2xs8-1" source="Zwh_xfM-_3h61Ws-3dWn-33" target="Zwh_xfM-_3h61Ws-3dWn-69">
          <mxGeometry relative="1" as="geometry" />
        </mxCell>
        <mxCell id="Zwh_xfM-_3h61Ws-3dWn-33" value="" style="verticalLabelPosition=bottom;html=1;verticalAlign=top;align=center;strokeColor=none;fillColor=#00BEF2;shape=mxgraph.azure.laptop;pointerEvents=1;" vertex="1" parent="w8XVWNWsTbKyDXxL2xs8-1">
          <mxGeometry x="23.09" y="232" width="66.66" height="40" as="geometry" />
        </mxCell>
        <mxCell id="Zwh_xfM-_3h61Ws-3dWn-67" value="" style="strokeColor=#dddddd;shadow=1;strokeWidth=1;rounded=1;absoluteArcSize=1;arcSize=2;" vertex="1" parent="w8XVWNWsTbKyDXxL2xs8-1">
          <mxGeometry x="120" y="122" width="120" height="60" as="geometry" />
        </mxCell>
        <mxCell id="Zwh_xfM-_3h61Ws-3dWn-68" value="CDN" style="dashed=0;connectable=0;html=1;fillColor=#5184F3;strokeColor=none;shape=mxgraph.gcp2.hexIcon;prIcon=cloud_cdn;part=1;labelPosition=right;verticalLabelPosition=middle;align=left;verticalAlign=middle;spacingLeft=5;fontColor=#999999;fontSize=12;" vertex="1" parent="Zwh_xfM-_3h61Ws-3dWn-67">
          <mxGeometry y="0.5" width="44" height="39" relative="1" as="geometry">
            <mxPoint x="5" y="-19.5" as="offset" />
          </mxGeometry>
        </mxCell>
        <mxCell id="Zwh_xfM-_3h61Ws-3dWn-74" style="edgeStyle=orthogonalEdgeStyle;curved=1;orthogonalLoop=1;jettySize=auto;html=1;exitX=0.5;exitY=0;exitDx=0;exitDy=0;entryX=0.5;entryY=1;entryDx=0;entryDy=0;strokeColor=#0000FF;startArrow=classic;startFill=1;" edge="1" parent="w8XVWNWsTbKyDXxL2xs8-1" source="Zwh_xfM-_3h61Ws-3dWn-69" target="Zwh_xfM-_3h61Ws-3dWn-67">
          <mxGeometry relative="1" as="geometry" />
        </mxCell>
        <mxCell id="Zwh_xfM-_3h61Ws-3dWn-87" style="edgeStyle=orthogonalEdgeStyle;curved=1;orthogonalLoop=1;jettySize=auto;html=1;exitX=1;exitY=0.5;exitDx=0;exitDy=0;entryX=0;entryY=0.5;entryDx=0;entryDy=0;startArrow=none;startFill=0;strokeColor=#0000FF;" edge="1" parent="w8XVWNWsTbKyDXxL2xs8-1" source="Zwh_xfM-_3h61Ws-3dWn-69" target="Zwh_xfM-_3h61Ws-3dWn-10">
          <mxGeometry relative="1" as="geometry" />
        </mxCell>
        <mxCell id="Zwh_xfM-_3h61Ws-3dWn-69" value="" style="strokeColor=#dddddd;shadow=1;strokeWidth=1;rounded=1;absoluteArcSize=1;arcSize=2;" vertex="1" parent="w8XVWNWsTbKyDXxL2xs8-1">
          <mxGeometry x="120" y="222" width="120" height="60" as="geometry" />
        </mxCell>
        <mxCell id="Zwh_xfM-_3h61Ws-3dWn-70" value="HTTPS LB" style="dashed=0;connectable=0;html=1;fillColor=#5184F3;strokeColor=none;shape=mxgraph.gcp2.hexIcon;prIcon=cloud_load_balancing;part=1;labelPosition=right;verticalLabelPosition=middle;align=left;verticalAlign=middle;spacingLeft=5;fontColor=#999999;fontSize=12;" vertex="1" parent="Zwh_xfM-_3h61Ws-3dWn-69">
          <mxGeometry y="0.5" width="44" height="39" relative="1" as="geometry">
            <mxPoint x="5" y="-19.5" as="offset" />
          </mxGeometry>
        </mxCell>
        <mxCell id="Zwh_xfM-_3h61Ws-3dWn-144" style="edgeStyle=orthogonalEdgeStyle;rounded=1;orthogonalLoop=1;jettySize=auto;html=1;exitX=0.5;exitY=0;exitDx=0;exitDy=0;entryX=0.5;entryY=0;entryDx=0;entryDy=0;startArrow=none;startFill=0;strokeColor=#0000FF;" edge="1" parent="w8XVWNWsTbKyDXxL2xs8-1" source="Zwh_xfM-_3h61Ws-3dWn-23" target="Zwh_xfM-_3h61Ws-3dWn-102">
          <mxGeometry relative="1" as="geometry" />
        </mxCell>
        <mxCell id="Zwh_xfM-_3h61Ws-3dWn-146" style="edgeStyle=orthogonalEdgeStyle;rounded=1;orthogonalLoop=1;jettySize=auto;html=1;exitX=0.5;exitY=0;exitDx=0;exitDy=0;entryX=0.5;entryY=0;entryDx=0;entryDy=0;startArrow=none;startFill=0;strokeColor=#0000FF;" edge="1" parent="w8XVWNWsTbKyDXxL2xs8-1" source="Zwh_xfM-_3h61Ws-3dWn-23" target="w8XVWNWsTbKyDXxL2xs8-16">
          <mxGeometry relative="1" as="geometry" />
        </mxCell>
        <mxCell id="Zwh_xfM-_3h61Ws-3dWn-23" value="" style="strokeColor=#dddddd;shadow=1;strokeWidth=1;rounded=1;absoluteArcSize=1;arcSize=2;" vertex="1" parent="w8XVWNWsTbKyDXxL2xs8-1">
          <mxGeometry x="440" y="282" width="120" height="60" as="geometry" />
        </mxCell>
        <mxCell id="Zwh_xfM-_3h61Ws-3dWn-24" value="&lt;font color=&quot;#000000&quot;&gt;AI&lt;/font&gt;&lt;br&gt;GAE Std" style="dashed=0;connectable=0;html=1;fillColor=#5184F3;strokeColor=none;shape=mxgraph.gcp2.hexIcon;prIcon=app_engine;part=1;labelPosition=right;verticalLabelPosition=middle;align=left;verticalAlign=middle;spacingLeft=5;fontColor=#999999;fontSize=12;" vertex="1" parent="Zwh_xfM-_3h61Ws-3dWn-23">
          <mxGeometry y="0.5" width="44" height="39" relative="1" as="geometry">
            <mxPoint x="5" y="-19.5" as="offset" />
          </mxGeometry>
        </mxCell>
        <mxCell id="Zwh_xfM-_3h61Ws-3dWn-97" style="edgeStyle=orthogonalEdgeStyle;orthogonalLoop=1;jettySize=auto;html=1;exitX=1;exitY=0.5;exitDx=0;exitDy=0;startArrow=none;startFill=0;strokeColor=#0000FF;rounded=1;entryX=0;entryY=0.5;entryDx=0;entryDy=0;" edge="1" parent="w8XVWNWsTbKyDXxL2xs8-1" source="Zwh_xfM-_3h61Ws-3dWn-43" target="Zwh_xfM-_3h61Ws-3dWn-23">
          <mxGeometry relative="1" as="geometry" />
        </mxCell>
        <mxCell id="Zwh_xfM-_3h61Ws-3dWn-110" style="edgeStyle=orthogonalEdgeStyle;orthogonalLoop=1;jettySize=auto;html=1;exitX=1;exitY=0.5;exitDx=0;exitDy=0;entryX=-0.017;entryY=0.617;entryDx=0;entryDy=0;entryPerimeter=0;startArrow=none;startFill=0;strokeColor=#0000FF;rounded=1;" edge="1" parent="w8XVWNWsTbKyDXxL2xs8-1" source="Zwh_xfM-_3h61Ws-3dWn-43" target="Zwh_xfM-_3h61Ws-3dWn-46">
          <mxGeometry relative="1" as="geometry" />
        </mxCell>
        <mxCell id="Zwh_xfM-_3h61Ws-3dWn-111" style="edgeStyle=orthogonalEdgeStyle;rounded=1;orthogonalLoop=1;jettySize=auto;html=1;exitX=1;exitY=0.5;exitDx=0;exitDy=0;startArrow=none;startFill=0;strokeColor=#0000FF;" edge="1" parent="w8XVWNWsTbKyDXxL2xs8-1" source="Zwh_xfM-_3h61Ws-3dWn-43" target="Zwh_xfM-_3h61Ws-3dWn-93">
          <mxGeometry relative="1" as="geometry" />
        </mxCell>
        <mxCell id="Zwh_xfM-_3h61Ws-3dWn-112" style="edgeStyle=orthogonalEdgeStyle;rounded=1;orthogonalLoop=1;jettySize=auto;html=1;exitX=1;exitY=0.5;exitDx=0;exitDy=0;entryX=0;entryY=0.5;entryDx=0;entryDy=0;startArrow=none;startFill=0;strokeColor=#0000FF;" edge="1" parent="w8XVWNWsTbKyDXxL2xs8-1" source="Zwh_xfM-_3h61Ws-3dWn-43" target="Zwh_xfM-_3h61Ws-3dWn-95">
          <mxGeometry relative="1" as="geometry" />
        </mxCell>
        <mxCell id="Zwh_xfM-_3h61Ws-3dWn-151" style="edgeStyle=orthogonalEdgeStyle;rounded=1;orthogonalLoop=1;jettySize=auto;html=1;exitX=1;exitY=0.5;exitDx=0;exitDy=0;entryX=0;entryY=0.5;entryDx=0;entryDy=0;startArrow=none;startFill=0;strokeColor=#0000FF;" edge="1" parent="w8XVWNWsTbKyDXxL2xs8-1" source="Zwh_xfM-_3h61Ws-3dWn-43" target="Zwh_xfM-_3h61Ws-3dWn-149">
          <mxGeometry relative="1" as="geometry" />
        </mxCell>
        <mxCell id="Zwh_xfM-_3h61Ws-3dWn-43" value="" style="strokeColor=#dddddd;shadow=1;strokeWidth=1;rounded=1;absoluteArcSize=1;arcSize=2;" vertex="1" parent="w8XVWNWsTbKyDXxL2xs8-1">
          <mxGeometry x="281.25" y="442" width="118.75" height="60" as="geometry" />
        </mxCell>
        <mxCell id="Zwh_xfM-_3h61Ws-3dWn-44" value="Endpoints" style="dashed=0;connectable=0;html=1;fillColor=#5184F3;strokeColor=none;shape=mxgraph.gcp2.hexIcon;prIcon=cloud_endpoints;part=1;labelPosition=right;verticalLabelPosition=middle;align=left;verticalAlign=middle;spacingLeft=5;fontColor=#999999;fontSize=12;" vertex="1" parent="Zwh_xfM-_3h61Ws-3dWn-43">
          <mxGeometry y="0.5" width="44" height="39" relative="1" as="geometry">
            <mxPoint x="5" y="-19.5" as="offset" />
          </mxGeometry>
        </mxCell>
        <mxCell id="Zwh_xfM-_3h61Ws-3dWn-136" style="edgeStyle=orthogonalEdgeStyle;curved=1;orthogonalLoop=1;jettySize=auto;html=1;exitX=1;exitY=0.5;exitDx=0;exitDy=0;startArrow=none;startFill=0;strokeColor=#0000FF;" edge="1" parent="w8XVWNWsTbKyDXxL2xs8-1" source="Zwh_xfM-_3h61Ws-3dWn-46" target="Zwh_xfM-_3h61Ws-3dWn-122">
          <mxGeometry relative="1" as="geometry" />
        </mxCell>
        <mxCell id="Zwh_xfM-_3h61Ws-3dWn-46" value="" style="strokeColor=#dddddd;shadow=1;strokeWidth=1;rounded=1;absoluteArcSize=1;arcSize=2;" vertex="1" parent="w8XVWNWsTbKyDXxL2xs8-1">
          <mxGeometry x="440" y="382" width="120" height="60" as="geometry" />
        </mxCell>
        <mxCell id="Zwh_xfM-_3h61Ws-3dWn-47" value="&lt;font color=&quot;#000000&quot;&gt;MM&lt;/font&gt;&lt;br&gt;GAE Std" style="dashed=0;connectable=0;html=1;fillColor=#5184F3;strokeColor=none;shape=mxgraph.gcp2.hexIcon;prIcon=app_engine;part=1;labelPosition=right;verticalLabelPosition=middle;align=left;verticalAlign=middle;spacingLeft=5;fontColor=#999999;fontSize=12;" vertex="1" parent="Zwh_xfM-_3h61Ws-3dWn-46">
          <mxGeometry y="0.5" width="44" height="39" relative="1" as="geometry">
            <mxPoint x="5" y="-19.5" as="offset" />
          </mxGeometry>
        </mxCell>
        <mxCell id="Zwh_xfM-_3h61Ws-3dWn-83" style="edgeStyle=orthogonalEdgeStyle;curved=1;orthogonalLoop=1;jettySize=auto;html=1;exitX=0.5;exitY=1;exitDx=0;exitDy=0;entryX=0;entryY=0.5;entryDx=0;entryDy=0;startArrow=none;startFill=0;strokeColor=#0000FF;" edge="1" parent="w8XVWNWsTbKyDXxL2xs8-1" source="Zwh_xfM-_3h61Ws-3dWn-69" target="Zwh_xfM-_3h61Ws-3dWn-43">
          <mxGeometry relative="1" as="geometry" />
        </mxCell>
        <mxCell id="Zwh_xfM-_3h61Ws-3dWn-189" style="edgeStyle=orthogonalEdgeStyle;rounded=1;orthogonalLoop=1;jettySize=auto;html=1;exitX=1;exitY=0.5;exitDx=0;exitDy=0;entryX=0;entryY=0.5;entryDx=0;entryDy=0;startArrow=none;startFill=0;strokeColor=#0000FF;" edge="1" parent="w8XVWNWsTbKyDXxL2xs8-1" source="Zwh_xfM-_3h61Ws-3dWn-93" target="w8XVWNWsTbKyDXxL2xs8-26">
          <mxGeometry relative="1" as="geometry" />
        </mxCell>
        <mxCell id="Zwh_xfM-_3h61Ws-3dWn-93" value="" style="strokeColor=#dddddd;shadow=1;strokeWidth=1;rounded=1;absoluteArcSize=1;arcSize=2;" vertex="1" parent="w8XVWNWsTbKyDXxL2xs8-1">
          <mxGeometry x="441.25" y="502" width="120" height="60" as="geometry" />
        </mxCell>
        <mxCell id="Zwh_xfM-_3h61Ws-3dWn-94" value="&lt;font color=&quot;#000000&quot;&gt;Msg&lt;/font&gt;&lt;br&gt;GAE Std" style="dashed=0;connectable=0;html=1;fillColor=#5184F3;strokeColor=none;shape=mxgraph.gcp2.hexIcon;prIcon=app_engine;part=1;labelPosition=right;verticalLabelPosition=middle;align=left;verticalAlign=middle;spacingLeft=5;fontColor=#999999;fontSize=12;" vertex="1" parent="Zwh_xfM-_3h61Ws-3dWn-93">
          <mxGeometry y="0.5" width="44" height="39" relative="1" as="geometry">
            <mxPoint x="5" y="-19.5" as="offset" />
          </mxGeometry>
        </mxCell>
        <mxCell id="Zwh_xfM-_3h61Ws-3dWn-181" style="edgeStyle=orthogonalEdgeStyle;rounded=1;orthogonalLoop=1;jettySize=auto;html=1;exitX=1;exitY=0.5;exitDx=0;exitDy=0;entryX=0;entryY=0.5;entryDx=0;entryDy=0;startArrow=none;startFill=0;strokeColor=#0000FF;" edge="1" parent="w8XVWNWsTbKyDXxL2xs8-1" source="Zwh_xfM-_3h61Ws-3dWn-95" target="Zwh_xfM-_3h61Ws-3dWn-178">
          <mxGeometry relative="1" as="geometry" />
        </mxCell>
        <mxCell id="Zwh_xfM-_3h61Ws-3dWn-95" value="" style="strokeColor=#dddddd;shadow=1;strokeWidth=1;rounded=1;absoluteArcSize=1;arcSize=2;" vertex="1" parent="w8XVWNWsTbKyDXxL2xs8-1">
          <mxGeometry x="440" y="602" width="120" height="60" as="geometry" />
        </mxCell>
        <mxCell id="Zwh_xfM-_3h61Ws-3dWn-96" value="&lt;font color=&quot;#000000&quot;&gt;Chat&lt;/font&gt;&lt;br&gt;GAE Std" style="dashed=0;connectable=0;html=1;fillColor=#5184F3;strokeColor=none;shape=mxgraph.gcp2.hexIcon;prIcon=app_engine;part=1;labelPosition=right;verticalLabelPosition=middle;align=left;verticalAlign=middle;spacingLeft=5;fontColor=#999999;fontSize=12;" vertex="1" parent="Zwh_xfM-_3h61Ws-3dWn-95">
          <mxGeometry y="0.5" width="44" height="39" relative="1" as="geometry">
            <mxPoint x="5" y="-19.5" as="offset" />
          </mxGeometry>
        </mxCell>
        <mxCell id="Zwh_xfM-_3h61Ws-3dWn-102" value="" style="strokeColor=#dddddd;shadow=1;strokeWidth=1;rounded=1;absoluteArcSize=1;arcSize=2;" vertex="1" parent="w8XVWNWsTbKyDXxL2xs8-1">
          <mxGeometry x="760" y="282" width="120" height="60" as="geometry" />
        </mxCell>
        <mxCell id="Zwh_xfM-_3h61Ws-3dWn-103" value="&lt;font color=&quot;#000000&quot;&gt;Account&lt;/font&gt;&lt;br&gt;Spanner" style="dashed=0;connectable=0;html=1;fillColor=#5184F3;strokeColor=none;shape=mxgraph.gcp2.hexIcon;prIcon=cloud_spanner;part=1;labelPosition=right;verticalLabelPosition=middle;align=left;verticalAlign=middle;spacingLeft=5;fontColor=#999999;fontSize=12;" vertex="1" parent="Zwh_xfM-_3h61Ws-3dWn-102">
          <mxGeometry y="0.5" width="44" height="39" relative="1" as="geometry">
            <mxPoint x="5" y="-19.5" as="offset" />
          </mxGeometry>
        </mxCell>
        <mxCell id="Zwh_xfM-_3h61Ws-3dWn-137" style="edgeStyle=orthogonalEdgeStyle;curved=1;orthogonalLoop=1;jettySize=auto;html=1;exitX=1;exitY=0.5;exitDx=0;exitDy=0;entryX=0;entryY=0.5;entryDx=0;entryDy=0;startArrow=none;startFill=0;strokeColor=#0000FF;" edge="1" parent="w8XVWNWsTbKyDXxL2xs8-1" source="Zwh_xfM-_3h61Ws-3dWn-122" target="w8XVWNWsTbKyDXxL2xs8-24">
          <mxGeometry relative="1" as="geometry" />
        </mxCell>
        <mxCell id="Zwh_xfM-_3h61Ws-3dWn-122" value="" style="strokeColor=#dddddd;shadow=1;strokeWidth=1;rounded=1;absoluteArcSize=1;arcSize=2;" vertex="1" parent="w8XVWNWsTbKyDXxL2xs8-1">
          <mxGeometry x="600" y="382" width="120" height="60" as="geometry" />
        </mxCell>
        <mxCell id="Zwh_xfM-_3h61Ws-3dWn-123" value="Pub/Sub" style="dashed=0;connectable=0;html=1;fillColor=#5184F3;strokeColor=none;shape=mxgraph.gcp2.hexIcon;prIcon=cloud_pubsub;part=1;labelPosition=right;verticalLabelPosition=middle;align=left;verticalAlign=middle;spacingLeft=5;fontColor=#999999;fontSize=12;" vertex="1" parent="Zwh_xfM-_3h61Ws-3dWn-122">
          <mxGeometry y="0.5" width="44" height="39" relative="1" as="geometry">
            <mxPoint x="5" y="-19.5" as="offset" />
          </mxGeometry>
        </mxCell>
        <mxCell id="Zwh_xfM-_3h61Ws-3dWn-156" style="edgeStyle=orthogonalEdgeStyle;rounded=1;orthogonalLoop=1;jettySize=auto;html=1;exitX=1;exitY=0.5;exitDx=0;exitDy=0;entryX=0;entryY=0.5;entryDx=0;entryDy=0;startArrow=none;startFill=0;strokeColor=#0000FF;" edge="1" parent="w8XVWNWsTbKyDXxL2xs8-1" source="Zwh_xfM-_3h61Ws-3dWn-149" target="Zwh_xfM-_3h61Ws-3dWn-152">
          <mxGeometry relative="1" as="geometry" />
        </mxCell>
        <mxCell id="Zwh_xfM-_3h61Ws-3dWn-149" value="" style="strokeColor=#dddddd;shadow=1;strokeWidth=1;rounded=1;absoluteArcSize=1;arcSize=2;" vertex="1" parent="w8XVWNWsTbKyDXxL2xs8-1">
          <mxGeometry x="440" y="122" width="120" height="60" as="geometry" />
        </mxCell>
        <mxCell id="Zwh_xfM-_3h61Ws-3dWn-150" value="&lt;font color=&quot;#000000&quot;&gt;Register&lt;/font&gt;&lt;br&gt;GAE Flex" style="dashed=0;connectable=0;html=1;fillColor=#5184F3;strokeColor=none;shape=mxgraph.gcp2.hexIcon;prIcon=app_engine;part=1;labelPosition=right;verticalLabelPosition=middle;align=left;verticalAlign=middle;spacingLeft=5;fontColor=#999999;fontSize=12;" vertex="1" parent="Zwh_xfM-_3h61Ws-3dWn-149">
          <mxGeometry y="0.5" width="44" height="39" relative="1" as="geometry">
            <mxPoint x="5" y="-19.5" as="offset" />
          </mxGeometry>
        </mxCell>
        <mxCell id="Zwh_xfM-_3h61Ws-3dWn-157" style="edgeStyle=orthogonalEdgeStyle;rounded=1;orthogonalLoop=1;jettySize=auto;html=1;exitX=0.5;exitY=1;exitDx=0;exitDy=0;entryX=0.5;entryY=0;entryDx=0;entryDy=0;startArrow=none;startFill=0;strokeColor=#0000FF;" edge="1" parent="w8XVWNWsTbKyDXxL2xs8-1" source="Zwh_xfM-_3h61Ws-3dWn-152" target="Zwh_xfM-_3h61Ws-3dWn-154">
          <mxGeometry relative="1" as="geometry" />
        </mxCell>
        <mxCell id="Zwh_xfM-_3h61Ws-3dWn-152" value="" style="strokeColor=#dddddd;shadow=1;strokeWidth=1;rounded=1;absoluteArcSize=1;arcSize=2;" vertex="1" parent="w8XVWNWsTbKyDXxL2xs8-1">
          <mxGeometry x="600" y="62" width="120" height="60" as="geometry" />
        </mxCell>
        <mxCell id="Zwh_xfM-_3h61Ws-3dWn-153" value="&lt;font color=&quot;#000000&quot;&gt;Customer&lt;/font&gt;&lt;br&gt;Firestore" style="dashed=0;connectable=0;html=1;fillColor=#5184F3;strokeColor=none;shape=mxgraph.gcp2.hexIcon;prIcon=cloud_firestore;part=1;labelPosition=right;verticalLabelPosition=middle;align=left;verticalAlign=middle;spacingLeft=5;fontColor=#999999;fontSize=12;" vertex="1" parent="Zwh_xfM-_3h61Ws-3dWn-152">
          <mxGeometry y="0.5" width="44" height="39" relative="1" as="geometry">
            <mxPoint x="5" y="-19.5" as="offset" />
          </mxGeometry>
        </mxCell>
        <mxCell id="Zwh_xfM-_3h61Ws-3dWn-154" value="" style="strokeColor=#dddddd;shadow=1;strokeWidth=1;rounded=1;absoluteArcSize=1;arcSize=2;" vertex="1" parent="w8XVWNWsTbKyDXxL2xs8-1">
          <mxGeometry x="600" y="172" width="120" height="60" as="geometry" />
        </mxCell>
        <mxCell id="Zwh_xfM-_3h61Ws-3dWn-155" value="&lt;font color=&quot;#000000&quot;&gt;Notify&lt;/font&gt;&lt;br&gt;Function" style="dashed=0;connectable=0;html=1;fillColor=#5184F3;strokeColor=none;shape=mxgraph.gcp2.hexIcon;prIcon=cloud_functions;part=1;labelPosition=right;verticalLabelPosition=middle;align=left;verticalAlign=middle;spacingLeft=5;fontColor=#999999;fontSize=12;" vertex="1" parent="Zwh_xfM-_3h61Ws-3dWn-154">
          <mxGeometry y="0.5" width="44" height="39" relative="1" as="geometry">
            <mxPoint x="5" y="-19.5" as="offset" />
          </mxGeometry>
        </mxCell>
        <mxCell id="Zwh_xfM-_3h61Ws-3dWn-162" style="edgeStyle=orthogonalEdgeStyle;rounded=1;orthogonalLoop=1;jettySize=auto;html=1;entryX=1;entryY=0.5;entryDx=0;entryDy=0;startArrow=none;startFill=0;strokeColor=#0000FF;" edge="1" parent="w8XVWNWsTbKyDXxL2xs8-1" source="Zwh_xfM-_3h61Ws-3dWn-158" target="Zwh_xfM-_3h61Ws-3dWn-159">
          <mxGeometry relative="1" as="geometry" />
        </mxCell>
        <mxCell id="Zwh_xfM-_3h61Ws-3dWn-165" style="edgeStyle=orthogonalEdgeStyle;rounded=1;orthogonalLoop=1;jettySize=auto;html=1;exitX=0.5;exitY=0;exitDx=0;exitDy=0;exitPerimeter=0;startArrow=none;startFill=0;strokeColor=#0000FF;" edge="1" parent="w8XVWNWsTbKyDXxL2xs8-1" source="Zwh_xfM-_3h61Ws-3dWn-158" target="Zwh_xfM-_3h61Ws-3dWn-163">
          <mxGeometry relative="1" as="geometry" />
        </mxCell>
        <mxCell id="Zwh_xfM-_3h61Ws-3dWn-158" value="Staff" style="verticalLabelPosition=bottom;html=1;verticalAlign=top;align=center;strokeColor=none;fillColor=#00BEF2;shape=mxgraph.azure.user;" vertex="1" parent="w8XVWNWsTbKyDXxL2xs8-1">
          <mxGeometry x="1040" y="132" width="38" height="40" as="geometry" />
        </mxCell>
        <mxCell id="Zwh_xfM-_3h61Ws-3dWn-161" style="edgeStyle=orthogonalEdgeStyle;rounded=1;orthogonalLoop=1;jettySize=auto;html=1;exitX=0;exitY=0.5;exitDx=0;exitDy=0;entryX=1;entryY=0.5;entryDx=0;entryDy=0;startArrow=none;startFill=0;strokeColor=#0000FF;" edge="1" parent="w8XVWNWsTbKyDXxL2xs8-1" source="Zwh_xfM-_3h61Ws-3dWn-159" target="Zwh_xfM-_3h61Ws-3dWn-152">
          <mxGeometry relative="1" as="geometry" />
        </mxCell>
        <mxCell id="Zwh_xfM-_3h61Ws-3dWn-159" value="" style="strokeColor=#dddddd;shadow=1;strokeWidth=1;rounded=1;absoluteArcSize=1;arcSize=2;" vertex="1" parent="w8XVWNWsTbKyDXxL2xs8-1">
          <mxGeometry x="761.25" y="122" width="118.75" height="60" as="geometry" />
        </mxCell>
        <mxCell id="Zwh_xfM-_3h61Ws-3dWn-160" value="&lt;font color=&quot;#000000&quot;&gt;Staff Web&lt;/font&gt;&lt;br&gt;GAE Flex" style="dashed=0;connectable=0;html=1;fillColor=#5184F3;strokeColor=none;shape=mxgraph.gcp2.hexIcon;prIcon=app_engine;part=1;labelPosition=right;verticalLabelPosition=middle;align=left;verticalAlign=middle;spacingLeft=5;fontColor=#999999;fontSize=12;" vertex="1" parent="Zwh_xfM-_3h61Ws-3dWn-159">
          <mxGeometry y="0.5" width="44" height="39" relative="1" as="geometry">
            <mxPoint x="5" y="-19.5" as="offset" />
          </mxGeometry>
        </mxCell>
        <mxCell id="Zwh_xfM-_3h61Ws-3dWn-163" value="KYC" style="pointerEvents=1;shadow=0;dashed=0;html=1;strokeColor=none;fillColor=#505050;labelPosition=center;verticalLabelPosition=bottom;verticalAlign=top;outlineConnect=0;align=center;shape=mxgraph.office.communications.3rd_party_integration;" vertex="1" parent="w8XVWNWsTbKyDXxL2xs8-1">
          <mxGeometry x="953" y="30" width="54" height="55" as="geometry" />
        </mxCell>
        <mxCell id="Zwh_xfM-_3h61Ws-3dWn-175" style="edgeStyle=orthogonalEdgeStyle;rounded=1;orthogonalLoop=1;jettySize=auto;html=1;exitX=0.5;exitY=0;exitDx=0;exitDy=0;entryX=0.5;entryY=1;entryDx=0;entryDy=0;startArrow=none;startFill=0;strokeColor=#0000FF;" edge="1" parent="w8XVWNWsTbKyDXxL2xs8-1" source="Zwh_xfM-_3h61Ws-3dWn-166" target="Zwh_xfM-_3h61Ws-3dWn-43">
          <mxGeometry relative="1" as="geometry" />
        </mxCell>
        <mxCell id="Zwh_xfM-_3h61Ws-3dWn-166" value="" style="strokeColor=#dddddd;shadow=1;strokeWidth=1;rounded=1;absoluteArcSize=1;arcSize=2;" vertex="1" parent="w8XVWNWsTbKyDXxL2xs8-1">
          <mxGeometry x="281.25" y="520" width="118.75" height="60" as="geometry" />
        </mxCell>
        <mxCell id="Zwh_xfM-_3h61Ws-3dWn-167" value="&lt;font color=&quot;#000000&quot;&gt;Service&lt;/font&gt;&lt;br&gt;Endpoints" style="dashed=0;connectable=0;html=1;fillColor=#5184F3;strokeColor=none;shape=mxgraph.gcp2.hexIcon;prIcon=cloud_endpoints;part=1;labelPosition=right;verticalLabelPosition=middle;align=left;verticalAlign=middle;spacingLeft=5;fontColor=#999999;fontSize=12;" vertex="1" parent="Zwh_xfM-_3h61Ws-3dWn-166">
          <mxGeometry y="0.5" width="44" height="39" relative="1" as="geometry">
            <mxPoint x="5" y="-19.5" as="offset" />
          </mxGeometry>
        </mxCell>
        <mxCell id="Zwh_xfM-_3h61Ws-3dWn-177" style="edgeStyle=orthogonalEdgeStyle;rounded=1;orthogonalLoop=1;jettySize=auto;html=1;startArrow=none;startFill=0;strokeColor=#0000FF;" edge="1" parent="w8XVWNWsTbKyDXxL2xs8-1" source="Zwh_xfM-_3h61Ws-3dWn-172" target="Zwh_xfM-_3h61Ws-3dWn-166">
          <mxGeometry relative="1" as="geometry" />
        </mxCell>
        <mxCell id="Zwh_xfM-_3h61Ws-3dWn-172" value="Dev/Ops" style="verticalLabelPosition=bottom;html=1;verticalAlign=top;align=center;strokeColor=none;fillColor=#00BEF2;shape=mxgraph.azure.user;" vertex="1" parent="w8XVWNWsTbKyDXxL2xs8-1">
          <mxGeometry x="202" y="530" width="38" height="40" as="geometry" />
        </mxCell>
        <mxCell id="Zwh_xfM-_3h61Ws-3dWn-185" style="edgeStyle=orthogonalEdgeStyle;rounded=1;orthogonalLoop=1;jettySize=auto;html=1;exitX=0.5;exitY=1;exitDx=0;exitDy=0;entryX=0.5;entryY=0;entryDx=0;entryDy=0;startArrow=none;startFill=0;strokeColor=#0000FF;" edge="1" parent="w8XVWNWsTbKyDXxL2xs8-1" source="Zwh_xfM-_3h61Ws-3dWn-178" target="Zwh_xfM-_3h61Ws-3dWn-183">
          <mxGeometry relative="1" as="geometry" />
        </mxCell>
        <mxCell id="Zwh_xfM-_3h61Ws-3dWn-178" value="" style="strokeColor=#dddddd;shadow=1;strokeWidth=1;rounded=1;absoluteArcSize=1;arcSize=2;" vertex="1" parent="w8XVWNWsTbKyDXxL2xs8-1">
          <mxGeometry x="601.25" y="602" width="160" height="60" as="geometry" />
        </mxCell>
        <mxCell id="Zwh_xfM-_3h61Ws-3dWn-179" value="&lt;font color=&quot;#000000&quot;&gt;Dialogflow SDK&lt;/font&gt;&lt;br&gt;GKE" style="dashed=0;connectable=0;html=1;fillColor=#5184F3;strokeColor=none;shape=mxgraph.gcp2.hexIcon;prIcon=container_engine;part=1;labelPosition=right;verticalLabelPosition=middle;align=left;verticalAlign=middle;spacingLeft=5;fontColor=#999999;fontSize=12;" vertex="1" parent="Zwh_xfM-_3h61Ws-3dWn-178">
          <mxGeometry y="0.5" width="44" height="39" relative="1" as="geometry">
            <mxPoint x="5" y="-19.5" as="offset" />
          </mxGeometry>
        </mxCell>
        <mxCell id="Zwh_xfM-_3h61Ws-3dWn-188" style="edgeStyle=orthogonalEdgeStyle;rounded=1;orthogonalLoop=1;jettySize=auto;html=1;exitX=0.5;exitY=1;exitDx=0;exitDy=0;entryX=0.5;entryY=0;entryDx=0;entryDy=0;startArrow=none;startFill=0;strokeColor=#0000FF;" edge="1" parent="w8XVWNWsTbKyDXxL2xs8-1" source="Zwh_xfM-_3h61Ws-3dWn-183" target="Zwh_xfM-_3h61Ws-3dWn-186">
          <mxGeometry relative="1" as="geometry" />
        </mxCell>
        <mxCell id="Zwh_xfM-_3h61Ws-3dWn-183" value="" style="strokeColor=#dddddd;shadow=1;strokeWidth=1;rounded=1;absoluteArcSize=1;arcSize=2;" vertex="1" parent="w8XVWNWsTbKyDXxL2xs8-1">
          <mxGeometry x="621.25" y="680" width="120" height="60" as="geometry" />
        </mxCell>
        <mxCell id="Zwh_xfM-_3h61Ws-3dWn-184" value="Pub/Sub" style="dashed=0;connectable=0;html=1;fillColor=#5184F3;strokeColor=none;shape=mxgraph.gcp2.hexIcon;prIcon=cloud_pubsub;part=1;labelPosition=right;verticalLabelPosition=middle;align=left;verticalAlign=middle;spacingLeft=5;fontColor=#999999;fontSize=12;" vertex="1" parent="Zwh_xfM-_3h61Ws-3dWn-183">
          <mxGeometry y="0.5" width="44" height="39" relative="1" as="geometry">
            <mxPoint x="5" y="-19.5" as="offset" />
          </mxGeometry>
        </mxCell>
        <mxCell id="Zwh_xfM-_3h61Ws-3dWn-186" value="" style="strokeColor=#dddddd;shadow=1;strokeWidth=1;rounded=1;absoluteArcSize=1;arcSize=2;" vertex="1" parent="w8XVWNWsTbKyDXxL2xs8-1">
          <mxGeometry x="600" y="762" width="160" height="60" as="geometry" />
        </mxCell>
        <mxCell id="Zwh_xfM-_3h61Ws-3dWn-187" value="&lt;font color=&quot;#000000&quot;&gt;Subscription&lt;/font&gt;&lt;br&gt;Functions" style="dashed=0;connectable=0;html=1;fillColor=#5184F3;strokeColor=none;shape=mxgraph.gcp2.hexIcon;prIcon=cloud_functions;part=1;labelPosition=right;verticalLabelPosition=middle;align=left;verticalAlign=middle;spacingLeft=5;fontColor=#999999;fontSize=12;" vertex="1" parent="Zwh_xfM-_3h61Ws-3dWn-186">
          <mxGeometry y="0.5" width="44" height="39" relative="1" as="geometry">
            <mxPoint x="5" y="-19.5" as="offset" />
          </mxGeometry>
        </mxCell>
        <mxCell id="Zwh_xfM-_3h61Ws-3dWn-190" value="" style="strokeColor=#dddddd;shadow=1;strokeWidth=1;rounded=1;absoluteArcSize=1;arcSize=2;" vertex="1" parent="w8XVWNWsTbKyDXxL2xs8-1">
          <mxGeometry x="760" y="502" width="120" height="60" as="geometry" />
        </mxCell>
        <mxCell id="Zwh_xfM-_3h61Ws-3dWn-191" value="&lt;font color=&quot;#000000&quot;&gt;Notify&lt;/font&gt;&lt;br&gt;Function" style="dashed=0;connectable=0;html=1;fillColor=#5184F3;strokeColor=none;shape=mxgraph.gcp2.hexIcon;prIcon=cloud_functions;part=1;labelPosition=right;verticalLabelPosition=middle;align=left;verticalAlign=middle;spacingLeft=5;fontColor=#999999;fontSize=12;" vertex="1" parent="Zwh_xfM-_3h61Ws-3dWn-190">
          <mxGeometry y="0.5" width="44" height="39" relative="1" as="geometry">
            <mxPoint x="5" y="-19.5" as="offset" />
          </mxGeometry>
        </mxCell>
        <mxCell id="Zwh_xfM-_3h61Ws-3dWn-194" value="" style="html=1;verticalLabelPosition=bottom;align=center;labelBackgroundColor=#ffffff;verticalAlign=top;strokeWidth=2;strokeColor=#0080F0;shadow=0;dashed=0;shape=mxgraph.ios7.icons.mail;" vertex="1" parent="w8XVWNWsTbKyDXxL2xs8-1">
          <mxGeometry x="711.25" y="222" width="30" height="16.5" as="geometry" />
        </mxCell>
        <mxCell id="Zwh_xfM-_3h61Ws-3dWn-195" value="" style="html=1;verticalLabelPosition=bottom;align=center;labelBackgroundColor=#ffffff;verticalAlign=top;strokeWidth=2;strokeColor=#0080F0;shadow=0;dashed=0;shape=mxgraph.ios7.icons.mail;" vertex="1" parent="w8XVWNWsTbKyDXxL2xs8-1">
          <mxGeometry x="866" y="553.5" width="30" height="16.5" as="geometry" />
        </mxCell>
      </root>
    </mxGraphModel>
  </diagram>
  <diagram id="f106602c-feb2-e66a-4537-3a34d633f6aa" name="Page-1">
    <mxGraphModel dx="1422" dy="882" grid="1" gridSize="10" guides="1" tooltips="1" connect="1" arrows="1" fold="1" page="1" pageScale="1" pageWidth="1169" pageHeight="827" background="#ffffff" math="0" shadow="0">
      <root>
        <mxCell id="0" />
        <mxCell id="1" parent="0" />
        <mxCell id="14" value="&lt;b&gt;Google &lt;/b&gt;Cloud Platform" style="fillColor=#F6F6F6;strokeColor=none;shadow=0;gradientColor=none;fontSize=14;align=left;spacing=10;fontColor=#717171;9E9E9E;verticalAlign=top;spacingTop=-4;fontStyle=0;spacingLeft=40;html=1;" parent="1" vertex="1">
          <mxGeometry x="329.5" y="100" width="610" height="480" as="geometry" />
        </mxCell>
        <mxCell id="15" value="" style="shape=mxgraph.gcp2.google_cloud_platform;fillColor=#F6F6F6;strokeColor=none;shadow=0;gradientColor=none;" parent="14" vertex="1">
          <mxGeometry width="23" height="20" relative="1" as="geometry">
            <mxPoint x="20" y="10" as="offset" />
          </mxGeometry>
        </mxCell>
        <mxCell id="568" value="" style="strokeColor=#dddddd;fillColor=#ffffff;shadow=1;strokeWidth=1;rounded=1;absoluteArcSize=1;arcSize=2;fontSize=10;fontColor=#9E9E9E;align=center;html=1;" parent="14" vertex="1">
          <mxGeometry x="18" y="210" width="122" height="60" as="geometry" />
        </mxCell>
        <mxCell id="569" value="Cloud Load&#xa;Balancing" style="dashed=0;connectable=0;html=1;fillColor=#5184F3;strokeColor=none;shape=mxgraph.gcp2.hexIcon;prIcon=cloud_load_balancing;part=1;labelPosition=right;verticalLabelPosition=middle;align=left;verticalAlign=middle;spacingLeft=5;fontColor=#999999;fontSize=12;" parent="568" vertex="1">
          <mxGeometry y="0.5" width="44" height="39" relative="1" as="geometry">
            <mxPoint x="5" y="-19.5" as="offset" />
          </mxGeometry>
        </mxCell>
        <mxCell id="585" style="edgeStyle=elbowEdgeStyle;rounded=0;elbow=vertical;html=1;labelBackgroundColor=none;startArrow=blockThin;startFill=1;startSize=4;endArrow=blockThin;endFill=1;endSize=4;jettySize=auto;orthogonalLoop=1;strokeColor=#4284F3;strokeWidth=2;fontSize=12;fontColor=#000000;align=center;dashed=0;" parent="1" source="580" target="574" edge="1">
          <mxGeometry relative="1" as="geometry" />
        </mxCell>
        <mxCell id="580" value="Autoscaled Broker Tier&lt;br&gt;&lt;font style=&quot;font-size: 9px&quot;&gt;Custom MQTT &amp;lt;-&amp;gt; Cloud Pub/Sub broker&lt;/font&gt;&lt;br&gt;" style="rounded=1;absoluteArcSize=1;arcSize=2;html=1;strokeColor=none;gradientColor=none;shadow=0;dashed=0;strokeColor=none;fontSize=12;fontColor=#9E9E9E;align=left;verticalAlign=top;spacing=10;spacingTop=-4;fillColor=#E1F5FE;" parent="1" vertex="1">
          <mxGeometry x="529.5" y="280" width="190" height="140" as="geometry" />
        </mxCell>
        <mxCell id="2" value="Architecture: Internet of Things &amp;gt; MQTT to PubSub Broker" style="fillColor=#4DA1F5;strokeColor=none;shadow=1;gradientColor=none;fontSize=14;align=left;spacingLeft=50;fontColor=#ffffff;html=1;" parent="1" vertex="1">
          <mxGeometry x="209.5" y="40" width="750" height="40" as="geometry" />
        </mxCell>
        <mxCell id="582" style="edgeStyle=elbowEdgeStyle;rounded=0;elbow=vertical;html=1;labelBackgroundColor=none;startArrow=blockThin;startFill=1;startSize=4;endArrow=blockThin;endFill=1;endSize=4;jettySize=auto;orthogonalLoop=1;strokeColor=#4284F3;strokeWidth=2;fontSize=12;fontColor=#000000;align=center;dashed=0;" parent="1" source="566" target="568" edge="1">
          <mxGeometry relative="1" as="geometry" />
        </mxCell>
        <mxCell id="566" value="MQTT&lt;br&gt;Devices&lt;br&gt;" style="strokeColor=#dddddd;fillColor=#ffffff;shadow=1;strokeWidth=1;rounded=1;absoluteArcSize=1;arcSize=2;labelPosition=center;verticalLabelPosition=middle;align=center;verticalAlign=bottom;spacingLeft=0;fontColor=#999999;fontSize=12;whiteSpace=wrap;spacingBottom=2;html=1;" parent="1" vertex="1">
          <mxGeometry x="229.5" y="290" width="70" height="100" as="geometry" />
        </mxCell>
        <mxCell id="567" value="" style="dashed=0;connectable=0;html=1;fillColor=#757575;strokeColor=none;shape=mxgraph.gcp2.mobile_devices;part=1;" parent="566" vertex="1">
          <mxGeometry x="0.5" width="50" height="36.5" relative="1" as="geometry">
            <mxPoint x="-25" y="16.75" as="offset" />
          </mxGeometry>
        </mxCell>
        <mxCell id="584" style="edgeStyle=elbowEdgeStyle;rounded=0;elbow=vertical;html=1;labelBackgroundColor=none;startArrow=blockThin;startFill=1;startSize=4;endArrow=blockThin;endFill=1;endSize=4;jettySize=auto;orthogonalLoop=1;strokeColor=#4284F3;strokeWidth=2;fontSize=12;fontColor=#000000;align=center;dashed=0;" parent="1" source="568" target="580" edge="1">
          <mxGeometry relative="1" as="geometry" />
        </mxCell>
        <mxCell id="570" value="" style="shape=mxgraph.gcp2.doubleRect;strokeColor=#dddddd;fillColor=#ffffff;shadow=1;strokeWidth=1;fontSize=10;fontColor=#9E9E9E;align=center;html=1;" parent="1" vertex="1">
          <mxGeometry x="539.5" y="325" width="158" height="78" as="geometry" />
        </mxCell>
        <mxCell id="571" value="&lt;font color=&quot;#000000&quot;&gt;MQTT Broker&lt;/font&gt;&lt;br&gt;Compute Engine&lt;hr&gt;&lt;font&gt;&lt;span style=&quot;font-size: 11px&quot;&gt;RabbitMQ&lt;/span&gt;&lt;sup&gt;&lt;font style=&quot;font-size: 5px&quot;&gt;TM&lt;/font&gt;&lt;/sup&gt;&lt;/font&gt;" style="dashed=0;connectable=0;html=1;fillColor=#5184F3;strokeColor=none;shape=mxgraph.gcp2.hexIcon;prIcon=compute_engine;part=1;labelPosition=right;verticalLabelPosition=middle;align=left;verticalAlign=top;spacingLeft=5;fontColor=#999999;fontSize=12;spacingTop=-8;" parent="570" vertex="1">
          <mxGeometry width="44" height="39" relative="1" as="geometry">
            <mxPoint x="5" y="7" as="offset" />
          </mxGeometry>
        </mxCell>
        <mxCell id="586" style="edgeStyle=elbowEdgeStyle;rounded=0;elbow=vertical;html=1;labelBackgroundColor=none;startArrow=blockThin;startFill=1;startSize=4;endArrow=blockThin;endFill=1;endSize=4;jettySize=auto;orthogonalLoop=1;strokeColor=#4284F3;strokeWidth=2;fontSize=12;fontColor=#000000;align=center;dashed=0;" parent="1" source="572" target="574" edge="1">
          <mxGeometry relative="1" as="geometry" />
        </mxCell>
        <mxCell id="572" value="" style="strokeColor=#dddddd;fillColor=#ffffff;shadow=1;strokeWidth=1;rounded=1;absoluteArcSize=1;arcSize=2;fontSize=10;fontColor=#9E9E9E;align=center;html=1;" parent="1" vertex="1">
          <mxGeometry x="769.5" y="215" width="150" height="60" as="geometry" />
        </mxCell>
        <mxCell id="573" value="&lt;font color=&quot;#000000&quot;&gt;IoT Application&lt;/font&gt;&lt;br&gt;App Engine" style="dashed=0;connectable=0;html=1;fillColor=#5184F3;strokeColor=none;shape=mxgraph.gcp2.hexIcon;prIcon=app_engine;part=1;labelPosition=right;verticalLabelPosition=middle;align=left;verticalAlign=middle;spacingLeft=5;fontColor=#999999;fontSize=12;" parent="572" vertex="1">
          <mxGeometry y="0.5" width="44" height="39" relative="1" as="geometry">
            <mxPoint x="5" y="-19.5" as="offset" />
          </mxGeometry>
        </mxCell>
        <mxCell id="587" style="edgeStyle=elbowEdgeStyle;rounded=0;elbow=vertical;html=1;labelBackgroundColor=none;startArrow=none;startFill=0;startSize=4;endArrow=blockThin;endFill=1;endSize=4;jettySize=auto;orthogonalLoop=1;strokeColor=#4284F3;strokeWidth=2;fontSize=12;fontColor=#000000;align=center;dashed=0;" parent="1" source="574" target="576" edge="1">
          <mxGeometry relative="1" as="geometry" />
        </mxCell>
        <mxCell id="574" value="" style="strokeColor=#dddddd;fillColor=#ffffff;shadow=1;strokeWidth=1;rounded=1;absoluteArcSize=1;arcSize=2;fontSize=10;fontColor=#9E9E9E;align=center;html=1;" parent="1" vertex="1">
          <mxGeometry x="769.5" y="310" width="150" height="60" as="geometry" />
        </mxCell>
        <mxCell id="575" value="&lt;font color=&quot;#000000&quot;&gt;IoT Topic&lt;/font&gt;&lt;br&gt;Cloud Pub/Sub" style="dashed=0;connectable=0;html=1;fillColor=#5184F3;strokeColor=none;shape=mxgraph.gcp2.hexIcon;prIcon=cloud_pubsub;part=1;labelPosition=right;verticalLabelPosition=middle;align=left;verticalAlign=middle;spacingLeft=5;fontColor=#999999;fontSize=12;" parent="574" vertex="1">
          <mxGeometry y="0.5" width="44" height="39" relative="1" as="geometry">
            <mxPoint x="5" y="-19.5" as="offset" />
          </mxGeometry>
        </mxCell>
        <mxCell id="588" style="edgeStyle=elbowEdgeStyle;rounded=0;elbow=vertical;html=1;labelBackgroundColor=none;startArrow=none;startFill=0;startSize=4;endArrow=blockThin;endFill=1;endSize=4;jettySize=auto;orthogonalLoop=1;strokeColor=#4284F3;strokeWidth=2;fontSize=12;fontColor=#000000;align=center;dashed=0;" parent="1" source="576" target="578" edge="1">
          <mxGeometry relative="1" as="geometry" />
        </mxCell>
        <mxCell id="576" value="" style="strokeColor=#dddddd;fillColor=#ffffff;shadow=1;strokeWidth=1;rounded=1;absoluteArcSize=1;arcSize=2;fontSize=10;fontColor=#9E9E9E;align=center;html=1;" parent="1" vertex="1">
          <mxGeometry x="769.5" y="405" width="150" height="60" as="geometry" />
        </mxCell>
        <mxCell id="577" value="&lt;font color=&quot;#000000&quot;&gt;Stream Analytics&lt;/font&gt;&lt;br&gt;Cloud Dataflow" style="dashed=0;connectable=0;html=1;fillColor=#5184F3;strokeColor=none;shape=mxgraph.gcp2.hexIcon;prIcon=cloud_dataflow;part=1;labelPosition=right;verticalLabelPosition=middle;align=left;verticalAlign=middle;spacingLeft=5;fontColor=#999999;fontSize=12;" parent="576" vertex="1">
          <mxGeometry y="0.5" width="44" height="39" relative="1" as="geometry">
            <mxPoint x="5" y="-19.5" as="offset" />
          </mxGeometry>
        </mxCell>
        <mxCell id="578" value="" style="strokeColor=#dddddd;fillColor=#ffffff;shadow=1;strokeWidth=1;rounded=1;absoluteArcSize=1;arcSize=2;fontSize=10;fontColor=#9E9E9E;align=center;html=1;" parent="1" vertex="1">
          <mxGeometry x="769.5" y="495" width="150" height="60" as="geometry" />
        </mxCell>
        <mxCell id="579" value="&lt;font color=&quot;#000000&quot;&gt;IoT Warehouse&lt;/font&gt;&lt;br&gt;BigQuery" style="dashed=0;connectable=0;html=1;fillColor=#5184F3;strokeColor=none;shape=mxgraph.gcp2.hexIcon;prIcon=bigquery;part=1;labelPosition=right;verticalLabelPosition=middle;align=left;verticalAlign=middle;spacingLeft=5;fontColor=#999999;fontSize=12;" parent="578" vertex="1">
          <mxGeometry y="0.5" width="44" height="39" relative="1" as="geometry">
            <mxPoint x="5" y="-19.5" as="offset" />
          </mxGeometry>
        </mxCell>
      </root>
    </mxGraphModel>
  </diagram>
</mxfile>
